<?xml version="1.0" encoding="UTF-8" standalone="no"?>
<!DOCTYPE svg PUBLIC "-//W3C//DTD SVG 1.1//EN" "http://www.w3.org/Graphics/SVG/1.1/DTD/svg11.dtd">
<svg width="100%" height="100%" viewBox="0 0 640 360" version="1.1" xmlns="http://www.w3.org/2000/svg" xmlns:xlink="http://www.w3.org/1999/xlink" xml:space="preserve" xmlns:serif="http://www.serif.com/" style="fill-rule:evenodd;clip-rule:evenodd;stroke-linecap:round;stroke-linejoin:round;stroke-miterlimit:1.5;">
    <g id="bd2e410d-4235-4789-99c2-33cfdc98996e" transform="matrix(1.34863,0,0,1.34863,4.45934,32.4342)">
        <path d="M63.71,72.24C63.42,62.69 63.26,53.12 63.17,43.58C63.17,40.93 60.99,39.94 58.76,41.03C56.26,42.25 54.49,45.67 54.51,48.38C54.58,55.5 54.81,62.62 54.95,69.74C55.02,73.4 55.01,77.04 55.25,80.74C55.4,82.89 55.73,85.31 55.73,87.63C53.2,87.81 48.5,87.44 47.28,87.55C43.827,87.99 40.336,88.05 36.87,87.73C29.42,86.73 21.87,86.91 14.34,86.73C9.67,86.58 5.02,97.55 10.21,97.73C14.86,97.88 19.51,98 24.15,98.14C28.2,98.25 32.15,99.01 36.22,99.14C40.58,99.27 44.91,98.24 49.29,98.3C53.29,98.3 56.19,98.4 59.5,95.77C66.53,90.07 64,80 63.71,72.24Z" style="fill-opacity:0.15;fill-rule:nonzero;"/>
        <path d="M56.15,39.9L53.75,38L9.49,37.79L7.06,39.57L6.41,88.31L9.47,91.61L53.1,91.75L56.18,88.57L56.15,39.9Z" style="fill:rgb(247,148,31);fill-rule:nonzero;"/>
        <path d="M126,75C125.51,64.73 125.44,54.38 125.36,44.1C125.36,41.45 123.18,40.46 120.95,41.55C118.45,42.78 116.69,46.19 116.71,48.9C116.71,55.9 117.01,62.85 117.14,69.83C117.21,73.46 117.2,77.08 117.4,80.71C117.51,82.87 117.79,85.23 117.81,87.53C115.25,87.72 110.59,87.69 109.54,87.81C106.52,88.095 103.48,88.095 100.46,87.81C92.92,87.29 85.4,86.95 77.84,86.67C73.17,86.49 68.51,97.45 73.71,97.67C81.91,97.98 90.07,98.48 98.26,98.94C101.346,99.115 104.442,99.015 107.51,98.64C111.32,98.18 115.95,99.24 119.44,97.41C127.9,92.92 126.33,83 126,75Z" style="fill-opacity:0.15;fill-rule:nonzero;"/>
        <path d="M120,40.9L117.69,38C117.69,38 74.78,37.76 73.36,38.19C71.266,38.702 69.711,40.486 69.49,42.63L69.32,88.3L72.19,91.61L117.19,91.75L119.8,87.57L120,40.9Z" style="fill:rgb(247,148,31);fill-rule:nonzero;"/>
        <path d="M188.09,45.35C188.09,42.7 185.91,41.72 183.68,42.81C181.18,44.03 179.42,47.44 179.44,50.16C179.507,62.06 179.523,73.957 179.49,85.85C167.07,86.09 154.6,86.41 142.19,86.03C137.52,85.88 132.86,96.84 138.06,97.03C152.6,97.49 167.21,96.97 181.75,96.74C185.48,96.74 188.12,92.24 188.14,88.85C188.193,74.343 188.177,59.843 188.09,45.35Z" style="fill-opacity:0.15;fill-rule:nonzero;"/>
        <path d="M131.67,44.3C131.58,39.3 137.92,38.24 137.92,38.24L177.92,38.69L182,43.31L182,84.62C182,84.62 181.37,91.05 173.75,91.04C170.53,91.04 133.83,91.44 132.94,90.77C130.84,89.21 131.7,46.29 131.67,44.3Z" style="fill:rgb(247,148,31);fill-rule:nonzero;"/>
        <path d="M249.09,45C249.09,42.35 246.91,41.36 244.68,42.45C242.18,43.68 240.42,47.09 240.44,49.8C240.5,61.42 240.517,73.04 240.49,84.66C228.04,85.06 215.49,85.59 203.09,85.19C198.42,85.04 193.77,96 198.96,96.19C213.52,96.66 228.19,95.85 242.74,95.46C246.48,95.36 249.12,90.99 249.13,87.57C249.183,73.39 249.17,59.2 249.09,45Z" style="fill-opacity:0.15;fill-rule:nonzero;"/>
        <path d="M243.36,78.16C243.21,80.08 243.55,86.82 240.36,88.88C237.17,90.94 193.36,88.52 193.36,88.52L193.52,44.94C193.52,44.94 191.71,39.02 199.87,38.85C202.99,38.79 242.7,38.85 242.7,38.85L243.36,78.16Z" style="fill:rgb(247,148,31);fill-rule:nonzero;"/>
        <path d="M54.13,38.43C46.74,38.74 39.34,39.06 31.94,38.96C24.94,38.88 17.94,37.96 10.94,37.96C7.94,37.96 5.59,42.05 6.27,44.76C6.561,46.133 7.258,47.388 8.27,48.36C7.812,50.058 7.547,51.802 7.48,53.56C7.471,55.805 7.591,58.049 7.84,60.28C7.453,69.553 7.5,78.82 7.98,88.08C8.22,92.75 13.35,89.08 14.08,86.55C15.857,80.195 16.356,73.55 15.55,67C15.21,63.65 14.71,60.33 14.4,57C14.5,54.333 14.643,51.693 14.83,49.08C15.235,48.895 15.626,48.681 16,48.44C16.725,47.95 17.352,47.329 17.85,46.61C21.51,46.87 25.17,47.15 28.85,47.2C36.25,47.29 43.64,46.98 51.04,46.66C54.54,46.52 57.9,38.27 54.13,38.43Z" style="fill:white;fill-opacity:0.25;fill-rule:nonzero;"/>
        <path d="M117.54,39.72C103.093,38.855 88.596,39.455 74.27,41.51C71.93,41.85 70.27,45.3 70.27,47.36C70.37,55.2 69.19,62.98 69.27,70.81C69.33,75.69 69.33,85.88 73.65,89.11C74.65,89.85 76.02,88.91 76.79,88.35L77.04,88.16C79.45,86.38 79.91,81.61 77.87,81.03C76.58,79.44 76.25,74.31 76.05,72.63C75.73,69.323 75.66,65.997 75.84,62.68C76.03,58.15 76.44,53.68 76.64,49.1C89.184,47.582 101.839,47.214 114.45,48C117.94,48.16 121.48,40 117.54,39.72Z" style="fill:white;fill-opacity:0.25;fill-rule:nonzero;"/>
        <path d="M180.22,41L178.37,40.69C178.148,40.655 177.922,40.655 177.7,40.69C169.799,39.764 161.844,39.366 153.89,39.5C150.26,39.58 145.78,39.29 141.77,40.06C140.025,39.906 138.272,39.853 136.52,39.9C133.44,40 130.52,44.66 132.18,47.42C133.67,49.89 131.86,55.23 131.68,58.04C131.43,61.93 131.52,65.82 131.68,69.7C131.91,76.31 132.13,82.93 134.84,89.06C136.84,93.59 141.04,86.9 141.21,84.58C141.74,77.05 141.97,69.51 141.79,61.96C141.71,58.36 141.57,54.74 141.28,51.15C141.28,50.58 141.22,49.96 141.16,49.36C141.962,48.938 142.73,48.457 143.46,47.92L145.94,47.92C149.52,47.75 153.11,47.69 156.69,47.74C163.533,47.854 170.364,48.355 177.15,49.24C180.53,49.68 184.25,41.67 180.22,41Z" style="fill:white;fill-opacity:0.25;fill-rule:nonzero;"/>
        <path d="M241.26,41.33C234.39,39.38 227.48,39.86 220.44,40.21C213.129,40.467 205.81,40.293 198.52,39.69C195.92,39.52 193.47,43.26 193.73,45.61C195.23,59.15 194.85,72.5 195.21,86.06C195.36,91.36 201.8,85.9 201.7,82.46C201.39,70.99 201.61,59.67 200.78,48.26C206.293,48.61 211.821,48.67 217.34,48.44C224.4,48.09 231.29,47.61 238.17,49.57C241.42,50.49 245.26,42.47 241.26,41.33Z" style="fill:white;fill-opacity:0.25;fill-rule:nonzero;"/>
        <path d="M183.13,51.59C183.13,47.52 183.93,42.17 180.6,39.19C178.24,37.08 174.51,37.52 171.6,37.4C169.02,37.29 166.45,37.16 163.86,37.16L149.62,37.16C142.77,37.16 132.15,35.16 131.11,44.29C131.1,44.356 131.1,44.424 131.11,44.49C129.984,59.974 130.008,75.52 131.18,91C131.196,91.614 131.696,92.114 132.31,92.13C141.99,92.2 151.6,92.79 161.31,92.54C166.86,92.39 173.22,93.23 178.52,91.61C183.17,90.2 183.52,86.45 183.52,82.23C183.49,72 183.25,61.81 183.13,51.59ZM181.26,84.24C179.78,90.67 174.34,89.9 169.26,90.05C165.83,90.15 162.4,90.26 158.97,90.33C150.39,90.52 141.9,90 133.37,89.91C131.991,74.827 131.71,59.664 132.53,44.54C133.35,29.416 132.53,44.54 132.53,44.54C133.98,37.12 145.71,39.2 151.53,39.22L163.78,39.22C165.1,39.22 166.4,39.22 167.72,39.3C169.62,39.38 171.52,39.44 173.42,39.55C174.467,39.543 175.514,39.616 176.55,39.77C180.08,40.55 180.89,43.71 181,46.85C181.09,49.5 181,52.19 181,54.85C181.09,63.57 181.24,72.28 181.23,81C181.355,82.076 181.365,83.162 181.26,84.24Z" style="fill:rgb(30,30,30);fill-rule:nonzero;"/>
        <path d="M243.6,83.92C244.695,68.876 244.675,53.771 243.54,38.73C243.524,38.116 243.024,37.616 242.41,37.6C233.91,37.54 225.41,36.95 216.9,37.13C212.9,37.22 208.9,37.35 204.9,37.47C200.25,37.62 193.67,36.28 192.35,41.98C191.67,44.88 191.96,48.03 191.99,50.98C192.043,56.013 192.107,61.04 192.18,66.06C192.28,73.57 192.28,81.06 192.5,88.58C192.504,89.043 192.815,89.452 193.26,89.58C203,91.09 212.85,90.84 222.68,90.83C226.86,90.83 231.12,91.03 235.29,90.72C240.8,90.32 242.81,89.86 243.59,84.1C243.595,84.04 243.595,83.98 243.59,83.92L243.6,83.92ZM238.41,88.47C235.093,88.876 231.748,89.003 228.41,88.85L216.02,88.85C211.26,88.85 206.54,88.74 201.78,88.52C199.78,88.43 196.59,88.65 194.6,87.89C194.55,87.32 194.6,86.74 194.6,86.17C194.6,84.48 194.53,82.78 194.52,81.09C194.52,72.61 194.37,64.09 194.3,55.64C194.3,52.12 194.06,48.5 194.3,44.98C194.54,41.46 196.3,40.52 199.6,39.98C202.013,39.75 204.438,39.679 206.86,39.77L212.42,39.61C222.13,39.37 231.76,39.85 241.42,39.93C242.756,54.501 243.033,69.149 242.25,83.76C241.467,98.371 242.25,83.76 242.25,83.76C241.48,86.9 241.22,88 238.41,88.47Z" style="fill:rgb(30,30,30);fill-rule:nonzero;"/>
        <path d="M121,79.69C121,74.51 120.91,69.33 120.85,64.15C120.77,56.41 120.85,48.63 120.54,40.9C120.545,40.837 120.545,40.773 120.54,40.71C119.73,35.15 110.96,37.17 106.9,37.1C98.1,36.96 89.3,36.85 80.5,36.77C78.429,36.675 76.353,36.806 74.31,37.16C70.04,38.03 68.68,38.25 68.5,42.64C68.23,48.94 68.38,55.29 68.3,61.59C68.22,68.88 67.97,76.19 68.04,83.49C68.04,87.1 67.38,91.68 71.76,92.62C74.26,93.15 77.18,92.84 79.76,92.89C88.35,93.07 96.98,93.49 105.57,93.39C111.24,93.32 119.87,95.12 121.04,87.54C121.36,85 121,82.2 121,79.69ZM118.73,87.15C117.81,92.15 111.9,90.81 108.07,90.96C102.27,91.19 96.42,90.96 90.6,90.81L78.53,90.59C76.07,90.59 71.77,91.26 70.46,88.3C69.67,86.51 70.26,82.76 70.27,80.6L70.36,70.37C70.42,62.97 70.483,55.577 70.55,48.19C70.55,46.36 70.46,44.46 70.55,42.63C70.74,39.87 71.72,39.83 74.3,39.27C75.362,39.025 76.442,38.868 77.53,38.8C84.85,38.41 92.34,38.93 99.66,38.99L112.26,39.1C115.02,39.1 118.38,38 119.09,41.1C119.69,54.27 118.77,67.62 118.72,80.81C118.75,82.83 119.09,85.18 118.72,87.15L118.73,87.15Z" style="fill:rgb(30,30,30);fill-rule:nonzero;"/>
        <path d="M56.91,41C56.925,40.914 56.925,40.826 56.91,40.74C55.91,34.87 46.71,36.81 42.14,36.8L17.89,36.8C15.011,36.669 12.126,36.8 9.27,37.19C5.59,37.88 5.61,40.98 5.58,44.19C5.52,50.003 5.453,55.817 5.38,61.63C5.28,68.79 5.04,75.97 5.08,83.14C5.08,85.93 4.41,90.23 7.08,92.01C9.08,93.29 12.74,92.84 15.02,92.89C23.13,93.07 31.26,93.41 39.38,93.42C43.31,93.42 47.5,93.75 51.38,93.25C57.2,92.5 57.38,89.19 57.43,83.85C57.67,69.6 57.7,55.15 56.91,41ZM55.25,83.53C55.25,86.06 55.67,89.12 52.85,90.66C50.26,92.07 45.29,90.87 42.36,90.96C36.61,91.15 30.84,90.9 25.09,90.78L15.09,90.57C13.97,90.57 12.85,90.57 11.74,90.5C8,90.3 7.52,88.64 7.38,85.17C7.17,80.25 7.38,75.3 7.38,70.37C7.453,63.257 7.527,56.15 7.6,49.05L7.6,45.45C7.6,43.64 6.98,40.45 8.72,39.27C10.03,38.39 13.88,38.82 15.47,38.79C22.07,38.65 28.68,38.79 35.28,38.79C38.78,38.79 54.34,37.07 55.4,41.14C56.06,53.4 55.17,65.89 55.15,78.14C55.24,79.94 55.28,81.74 55.25,83.53Z" style="fill:rgb(30,30,30);fill-rule:nonzero;"/>
        <path d="M63.71,162.7C63.42,153.16 63.26,143.59 63.17,134.04C63.17,131.39 60.99,130.4 58.76,131.49C56.26,132.72 54.49,136.13 54.51,138.84C54.58,145.97 54.81,153.08 54.95,160.21C55.02,163.86 55.01,167.51 55.25,171.15C55.4,173.31 55.73,175.72 55.73,178.04C53.2,178.23 48.5,177.85 47.28,177.96C43.828,178.41 40.336,178.47 36.87,178.14C29.42,177.14 21.87,177.33 14.34,177.14C9.67,177 5.02,187.96 10.21,188.14L24.15,188.54C28.2,188.66 32.15,189.41 36.22,189.54C40.58,189.68 44.91,188.64 49.29,188.7C53.29,188.75 56.19,188.8 59.5,186.17C66.53,180.53 64,170.45 63.71,162.7Z" style="fill-opacity:0.15;fill-rule:nonzero;"/>
        <path d="M56.15,130.94C56.06,129.94 52.49,127.85 51.85,127.83C50.03,127.75 12.01,127.94 10.27,128.01C8.893,128.427 7.626,129.144 6.56,130.11C6.03,131.22 6.33,176.78 6.41,178.35C6.41,179.05 8.97,182.11 10.47,182.15C12.25,182.21 51.25,182.67 52.82,182.22C54.39,181.77 56.13,178.89 56.18,177.61C56.23,176.33 56.24,132 56.15,130.94Z" style="fill:rgb(247,148,31);fill-rule:nonzero;"/>
        <path d="M126,165.44C125.51,155.17 125.44,144.82 125.36,134.54C125.36,131.89 123.18,130.9 120.95,131.99C118.45,133.22 116.69,136.63 116.71,139.34C116.71,146.34 117.01,153.29 117.14,160.27C117.21,163.9 117.2,167.53 117.4,171.15C117.51,173.31 117.79,175.67 117.81,177.97C115.25,178.16 110.59,178.13 109.54,178.26C106.52,178.54 103.48,178.54 100.46,178.26C92.92,177.74 85.4,177.4 77.84,177.12C73.17,176.94 68.51,187.9 73.71,188.12C81.91,188.42 90.07,188.92 98.26,189.38C101.346,189.564 104.442,189.467 107.51,189.09C111.32,188.62 115.95,189.68 119.44,187.86C127.9,183.38 126.33,173.44 126,165.44Z" style="fill-opacity:0.15;fill-rule:nonzero;"/>
        <path d="M119.73,131.36C119.32,128.77 116.62,128.27 116.08,128.24C114.54,128.16 75.92,127.69 72.6,128.92C69.28,130.15 69.45,132.38 69.47,133.58C69.47,134.36 69.26,177.2 69.32,178.77C69.32,179.47 71,181.48 71.37,182.07C72.06,183.14 115.71,182.6 117.15,182.21C117.67,182.07 119.72,179.31 119.76,178.03C119.8,176.75 119.89,132.37 119.73,131.36Z" style="fill:rgb(247,148,31);fill-rule:nonzero;"/>
        <path d="M188.09,135.81C188.09,133.17 185.91,132.18 183.68,133.27C181.18,134.49 179.42,137.9 179.44,140.62C179.507,152.52 179.523,164.417 179.49,176.31C167.07,176.55 154.6,176.87 142.19,176.49C137.52,176.34 132.86,187.3 138.06,187.49C152.6,187.94 167.21,187.42 181.75,187.2C185.48,187.14 188.12,182.69 188.14,179.31C188.193,164.797 188.177,150.297 188.09,135.81Z" style="fill-opacity:0.15;fill-rule:nonzero;"/>
        <path d="M131.67,134.76C132.58,129.93 138.29,128.76 139.45,128.7C142.73,128.55 176.68,128.49 177.82,129.19C179.323,130.47 180.627,131.966 181.69,133.63C182.69,135.79 182.13,172.04 182,175.08C181.94,176.44 180.29,179.2 179.49,180.35C178.03,182.44 133.33,181.9 132.44,181.24C130.34,179.67 131.3,136.71 131.67,134.76Z" style="fill:rgb(247,148,31);fill-rule:nonzero;"/>
        <path d="M249.09,135.48C249.09,132.83 246.91,131.84 244.68,132.93C242.18,134.16 240.42,137.57 240.44,140.28C240.5,151.9 240.517,163.52 240.49,175.14C228.04,175.54 215.49,176.07 203.09,175.67C198.42,175.52 193.77,186.49 198.96,186.67C213.52,187.14 228.19,186.33 242.74,185.94C246.48,185.84 249.12,181.47 249.13,178.05C249.183,163.857 249.17,149.667 249.09,135.48Z" style="fill-opacity:0.15;fill-rule:nonzero;"/>
        <path d="M243.1,174.38C242.729,176.64 241.397,178.633 239.45,179.84C239,180.08 194.58,181.37 193.82,178.49C193.24,176.28 193.35,138.34 193.48,135.4C193.54,134.08 191.48,129.01 201.48,129.19C204.59,129.25 241.34,128.8 242.2,129.44C244.21,131 243.1,174.38 243.1,174.38Z" style="fill:rgb(247,148,31);fill-rule:nonzero;"/>
        <path d="M241.43,130.22L217.29,130.45L204.74,130.58C202.22,130.58 199.56,130.2 197.42,131.76C192.64,135.27 194.47,142.01 195.06,146.88C195.12,147.44 195.19,148 195.26,148.55C194.959,149.306 194.786,150.107 194.75,150.92C194.543,158.533 194.353,166.143 194.18,173.75C194.18,175.07 195.18,176.47 196.66,175.99C203.03,173.89 202.95,165.9 202.97,160.32C202.902,155.887 202.569,151.463 201.97,147.07C201.67,144.52 200.79,141.29 200.58,138.35C202.89,138.35 206.37,138.77 207.4,138.75L218.02,138.65L238.29,138.45C241.84,138.41 245.26,130.18 241.43,130.22Z" style="fill:white;fill-opacity:0.25;fill-rule:nonzero;"/>
        <path d="M179.34,131.81C169.79,129.72 160.14,130.48 150.49,130.92C150.474,129.992 149.709,129.235 148.78,129.23C146.674,129.082 144.557,129.2 142.48,129.58C139.77,129.76 137.06,130.2 135.11,131.68C132.42,133.68 131.36,137.32 131.57,140.56C131.714,142.462 131.961,144.355 132.31,146.23C131.906,147.094 131.675,148.028 131.63,148.98C131.395,155.224 131.605,161.476 132.26,167.69C132.6,170.9 132.31,177.54 136.77,177.69C138.49,177.75 139.83,176.26 140.66,174.93C144.5,168.7 141.72,159.93 140.72,153.17C140.053,148.77 139.347,144.383 138.6,140.01C138.6,139.8 138.53,139.6 138.49,139.39C150.02,139.45 161.56,137.68 172.99,139.46C173.282,139.675 173.628,139.804 173.99,139.83L176.25,140.05C179.6,140.37 183.42,132.7 179.34,131.81Z" style="fill:white;fill-opacity:0.25;fill-rule:nonzero;"/>
        <path d="M118.1,130.07C111.1,130.39 104.1,130.52 97.04,130.42C89.98,130.32 82.93,129.22 75.99,129.42C71.85,129.54 69.63,133.13 69.32,136.97C68.77,143.72 69.32,150.76 69.4,157.54C69.4,163.13 68.31,170.78 70.56,176.08C72.32,180.22 76.37,178.5 78.28,175.26C80.94,170.71 79.48,163.71 79.44,158.71C79.393,151.79 79.34,144.87 79.28,137.95C80.69,138.1 82.09,138.26 83.41,138.33C86.923,138.49 90.433,138.6 93.94,138.66C100.94,138.77 107.94,138.66 115.01,138.31C118.5,138.14 121.87,129.9 118.1,130.07Z" style="fill:white;fill-opacity:0.25;fill-rule:nonzero;"/>
        <path d="M54.19,130.38C40.3,126.38 26,131.58 11.94,129.11C9.22,128.64 7.12,132.89 7.15,135.03C7.403,149.697 7.657,164.38 7.91,179.08C7.97,182.56 11.3,181.23 12.81,179.61C17.17,174.94 17.37,166.9 17.36,160.85C17.36,153.22 16.26,145.66 16.41,138.02C28.01,138.24 39.69,135.32 51.1,138.61C54.34,139.54 58.19,131.53 54.19,130.38Z" style="fill:white;fill-opacity:0.25;fill-rule:nonzero;"/>
        <path d="M56.91,131.43C56.925,131.341 56.925,131.249 56.91,131.16C55.91,125.29 46.71,127.23 42.14,127.22L17.89,127.22C15.011,127.089 12.126,127.22 9.27,127.61C5.59,128.29 5.61,131.39 5.58,134.61C5.52,140.423 5.453,146.237 5.38,152.05C5.28,159.22 5.04,166.4 5.08,173.56C5.08,176.35 4.41,180.65 7.08,182.43C9.08,183.71 12.74,183.26 15.02,183.31C23.13,183.5 31.26,183.83 39.38,183.84C43.31,183.84 47.5,184.18 51.38,183.67C57.2,182.92 57.38,179.61 57.43,174.28C57.67,160.06 57.7,145.61 56.91,131.43ZM55.25,174C55.25,176.53 55.67,179.59 52.85,181.13C50.26,182.54 45.29,181.34 42.36,181.43C36.61,181.62 30.84,181.37 25.09,181.25L15.09,181.04C13.97,181.04 12.85,181.04 11.74,180.97C8.03,180.78 7.55,179.11 7.41,175.65C7.2,170.72 7.41,165.77 7.41,160.84C7.483,153.727 7.557,146.62 7.63,139.52L7.63,135.92C7.63,134.11 7.01,130.92 8.75,129.74C10.06,128.86 13.91,129.3 15.5,129.26C22.1,129.12 28.71,129.26 35.31,129.26C38.81,129.26 54.37,127.54 55.43,131.61C56.09,143.87 55.2,156.36 55.18,168.61C55.24,170.41 55.28,172.2 55.25,174Z" style="fill:rgb(30,30,30);fill-rule:nonzero;"/>
        <path d="M121,170.16C121,164.97 120.91,159.79 120.85,154.61C120.77,146.87 120.85,139.09 120.54,131.36C120.545,131.297 120.545,131.233 120.54,131.17C119.73,125.61 110.96,127.63 106.9,127.56C98.1,127.42 89.3,127.31 80.5,127.23C78.428,127.138 76.353,127.272 74.31,127.63C70.04,128.49 68.68,128.72 68.5,133.1C68.23,139.4 68.38,145.75 68.3,152.05C68.22,159.34 67.97,166.65 68.04,173.95C68.04,177.56 67.38,182.14 71.76,183.08C74.26,183.62 77.18,183.3 79.76,183.35C88.35,183.53 96.98,183.95 105.57,183.85C111.24,183.78 119.87,185.58 121.04,178C121.36,175.5 121,172.66 121,170.16ZM118.73,177.61C117.81,182.61 111.9,181.27 108.07,181.43C102.27,181.66 96.42,181.38 90.6,181.27L78.53,181.05C76.07,181 71.77,181.72 70.46,178.77C69.67,176.98 70.26,173.23 70.27,171.06L70.36,160.83C70.42,153.437 70.483,146.043 70.55,138.65C70.55,136.82 70.46,134.92 70.55,133.09C70.74,130.33 71.72,130.29 74.3,129.73C75.363,129.49 76.443,129.333 77.53,129.26C84.85,128.87 92.34,129.39 99.66,129.45L112.26,129.56C115.02,129.56 118.38,128.47 119.09,131.56C119.69,144.74 118.77,158.08 118.72,171.27C118.75,173.29 119.09,175.65 118.72,177.61L118.73,177.61Z" style="fill:rgb(30,30,30);fill-rule:nonzero;"/>
        <path d="M183.13,142.05C183.13,137.98 183.93,132.63 180.6,129.66C178.24,127.54 174.51,127.98 171.6,127.86C169.02,127.75 166.45,127.62 163.86,127.62L149.62,127.62C142.77,127.62 132.15,125.62 131.11,134.74C131.099,134.806 131.099,134.874 131.11,134.94C129.987,150.431 130.013,165.983 131.19,181.47C131.201,182.086 131.704,182.589 132.32,182.6C142,182.67 151.61,183.26 161.32,183.01C166.87,182.86 173.23,183.7 178.53,182.09C183.18,180.67 183.53,176.92 183.53,172.7C183.49,162.5 183.25,152.27 183.13,142.05ZM181.26,174.7C179.78,181.13 174.34,180.36 169.26,180.51C165.83,180.61 162.4,180.72 158.97,180.79C150.39,180.98 141.9,180.46 133.37,180.38C131.991,165.294 131.71,150.127 132.53,135C133.35,119.873 132.53,135 132.53,135C133.98,127.58 145.71,129.66 151.53,129.68L163.78,129.68C165.1,129.68 166.4,129.68 167.72,129.77C169.62,129.84 171.52,129.9 173.42,130.01C174.467,130.003 175.514,130.076 176.55,130.23C180.08,131.01 180.89,134.17 181,137.31C181.09,139.97 181,142.65 181,145.31C181.09,154.03 181.24,162.74 181.23,171.46C181.355,172.536 181.365,173.622 181.26,174.7Z" style="fill:rgb(30,30,30);fill-rule:nonzero;"/>
        <path d="M243.6,174.38C244.695,159.339 244.675,144.238 243.54,129.2C243.529,128.584 243.026,128.081 242.41,128.07C233.91,128.01 225.41,127.42 216.9,127.6C212.9,127.68 208.9,127.81 204.9,127.93C200.25,128.08 193.67,126.74 192.35,132.44C191.67,135.35 191.96,138.5 191.99,141.44C192.043,146.473 192.107,151.5 192.18,156.52C192.28,164.03 192.28,171.52 192.5,179.05C192.486,179.519 192.804,179.938 193.26,180.05C203,181.56 212.85,181.31 222.68,181.3C226.86,181.3 231.12,181.51 235.29,181.2C240.8,180.79 242.81,180.33 243.59,174.57C243.595,174.51 243.595,174.45 243.59,174.39L243.6,174.38ZM238.41,178.93C235.094,179.34 231.748,179.468 228.41,179.31L216.02,179.31C211.26,179.31 206.54,179.2 201.78,178.98C199.78,178.89 196.59,179.11 194.6,178.35C194.55,177.79 194.6,177.2 194.6,176.64C194.6,174.94 194.53,173.25 194.52,171.55C194.52,163.07 194.37,154.55 194.3,146.11C194.3,142.58 194.06,138.97 194.3,135.44C194.54,131.91 196.3,130.98 199.6,130.44C202.012,130.205 204.438,130.134 206.86,130.23C208.71,130.17 210.57,130.11 212.42,130.07C222.13,129.82 231.76,130.3 241.42,130.38C242.756,144.951 243.033,159.599 242.25,174.21C241.467,188.821 242.25,174.21 242.25,174.26C241.48,177.36 241.22,178.48 238.41,178.93Z" style="fill:rgb(30,30,30);fill-rule:nonzero;"/>
        <path d="M222.18,62.14C219.93,59.9 218.18,56.82 215.42,55.21C215.241,55.114 215.04,55.064 214.837,55.064C214.157,55.064 213.597,55.624 213.597,56.304C213.597,56.618 213.716,56.921 213.93,57.15C215.77,59.04 217.46,61.02 219.23,62.98C219.44,63.22 219.74,63.6 220.07,63.98C179.92,64.81 139.71,64.78 99.55,64.62C76.26,64.53 52.75,63.32 29.48,64.25C28.931,64.25 28.48,64.701 28.48,65.25C28.48,65.799 28.931,66.25 29.48,66.25C50.16,67.7 71.16,67.09 91.88,67.25C109.38,67.357 126.88,67.4 144.38,67.38C166.84,67.38 189.307,67.213 211.78,66.88C213.89,66.88 216.63,66.77 219.04,66.7C218.04,67.55 217.04,68.59 216.19,69.36C214.57,70.77 212.94,72.17 211.38,73.62C210.78,74.18 211.38,75.36 212.22,75.05C214.45,74.21 216.14,72.66 217.98,71.15C219.29,70.07 220.57,68.94 221.98,67.94C222.68,67.43 223.98,66.94 224.38,66.12C225.34,64.26 223.26,63.22 222.18,62.14Z" style="fill:rgb(30,30,30);fill-rule:nonzero;"/>
        <path d="M226.24,154.92C209.17,153.44 191.81,153.77 174.69,153.57C157.157,153.37 139.62,153.303 122.08,153.37C95.313,153.437 68.55,153.71 41.79,154.19C37.87,154.26 33.17,154.4 29.2,154.51C31.8,152.35 34.91,150.51 37.39,148.44C38.02,147.9 37.39,146.69 36.55,147C34.093,148.118 31.788,149.542 29.69,151.24C27.967,152.323 26.344,153.558 24.84,154.93C24.423,155.376 24.338,156.044 24.63,156.58C25.38,158.23 28.04,159.77 29.37,160.86C31.37,162.48 33.55,164.86 35.95,165.75C37.21,166.24 37.86,164.53 37.15,163.69C35.61,161.87 33.15,160.45 31.3,158.93C30.74,158.46 29.82,157.8 28.96,157.14C75.2,156.093 121.463,155.737 167.75,156.07C187.22,156.2 206.75,157.28 226.24,156.87C226.693,156.767 227.018,156.36 227.018,155.895C227.018,155.43 226.693,155.023 226.24,154.92Z" style="fill:rgb(30,30,30);fill-rule:nonzero;"/>
        <path d="M367.18,26C367.13,23.36 365.02,22.35 362.77,23.45C360.29,24.67 358.48,28.1 358.53,30.8C358.6,35.15 358.84,39.5 358.97,43.8C359.04,46.14 359.16,48.44 359.36,50.8L359.36,50.93C357.56,50.98 355.66,50.73 354.03,50.78C350.12,50.91 346.26,51.35 342.34,51.14C334.34,50.69 326.34,50.54 318.34,50.4C313.67,50.31 309.05,61.28 314.22,61.4C322.22,61.54 330.22,61.69 338.22,62.13C342.14,62.35 346,61.91 349.91,61.78C352.91,61.68 356.09,62.16 359.06,61.58C365.23,60.36 368.23,55.58 368.29,49.5C368.36,41.75 367.32,33.83 367.18,26Z" style="fill-opacity:0.15;fill-rule:nonzero;"/>
        <path d="M360.16,22.22C360.07,21.56 357.87,20.48 356.84,20.15C356.58,20.06 313.64,19.44 311.49,21.07C309.34,22.7 310.34,51.86 310.42,52.87C310.42,53.32 313.48,54.98 314.98,55.01C316.76,55.01 358.35,54.89 358.85,54.67C359.731,54.269 360.268,53.354 360.19,52.39C360.24,51.58 360.25,22.88 360.16,22.22Z" style="fill:rgb(247,148,31);fill-rule:nonzero;"/>
        <path d="M366.37,74.44C366.37,71.8 364.21,70.8 361.96,71.9C359.48,73.11 357.68,76.54 357.72,79.24C357.79,83.51 358.04,87.77 358.16,92.04C358.23,94.37 358.33,96.67 358.48,99.04L358.48,99.17C357.58,99.1 356.72,98.99 356.22,99C354.22,99.06 352.17,99.29 350.15,99.4C347.25,99.56 344.35,99.4 341.46,99.33C333.91,99.02 326.38,98.82 318.83,98.65C314.16,98.54 309.53,109.51 314.71,109.65C321.82,109.81 328.93,109.96 336.04,110.28C342.47,110.56 348.74,110.03 355.16,110.01C361.86,110.01 366.62,106.5 367.23,99.49C368,91.28 366.5,82.63 366.37,74.44Z" style="fill-opacity:0.15;fill-rule:nonzero;"/>
        <path d="M360.79,70.17C360.71,69.5 357.69,67.78 357.45,67.74C356.93,67.64 314.73,68 314.19,68.23C312.974,68.973 311.817,69.809 310.73,70.73C310.28,71.46 308.66,100.91 310.83,102.6C313,104.29 356.35,104.48 356.77,104.25C357.77,103.73 360.77,101.62 360.82,100.78C360.87,99.94 360.87,70.84 360.79,70.17Z" style="fill:rgb(247,148,31);fill-rule:nonzero;"/>
        <path d="M366.93,123.42C366.93,120.77 364.76,119.78 362.52,120.87C360.03,122.09 358.25,125.51 358.28,128.22C358.35,134.04 358.36,139.85 358.35,145.67C345.91,145.81 333.47,145.99 321.04,145.77C316.36,145.68 311.74,156.65 316.91,156.77C331.46,157.04 346.04,156.77 360.59,156.61C364.34,156.61 366.96,152.09 366.98,148.72C367,140.26 367,131.84 366.93,123.42Z" style="fill-opacity:0.15;fill-rule:nonzero;"/>
        <path d="M310.51,120.23C310.68,118.93 314.37,116.73 316.23,116.07C316.69,115.9 354.62,115.95 355.75,116.41C356.62,116.76 359.26,117.95 359.66,118.53C360.66,119.94 360.98,144.59 360.84,146.53C360.78,147.42 359.24,149.73 358.44,150.53C356.98,151.9 313.17,151.04 312.28,150.61C310.19,149.61 310.54,147.27 310.45,145.61C310.36,143.95 310.34,121.52 310.51,120.23Z" style="fill:rgb(247,148,31);fill-rule:nonzero;"/>
        <path d="M366.42,169.7C366.42,167.05 364.25,166.06 362.01,167.15C359.52,168.38 357.75,171.79 357.77,174.5C357.83,180.56 357.85,186.617 357.83,192.67C345.37,192.92 332.88,193.24 320.43,193C315.75,192.91 311.13,203.88 316.3,204C330.88,204.28 345.5,203.79 360.08,203.55C363.82,203.49 366.45,199.06 366.47,195.66C366.51,187.007 366.493,178.353 366.42,169.7Z" style="fill-opacity:0.15;fill-rule:nonzero;"/>
        <path d="M360.19,190C360.05,191.3 360.72,194.85 358.11,197.4C357.77,197.73 312.91,198.31 311.66,196.68C310.66,195.34 310.57,192.61 310.66,191.08C310.66,190.08 310.52,170.25 310.66,168.26C310.72,167.37 308.84,163.17 318.84,163.26C321.96,163.26 357.7,163 358.57,163.43C360.57,164.43 360.25,166.78 360.33,168.43C360.41,170.08 360.19,190 360.19,190Z" style="fill:rgb(247,148,31);fill-rule:nonzero;"/>
        <path d="M357.86,21.45C350.41,20.98 342.96,20.63 335.5,20.45C329.27,20.29 321.21,18.96 315.15,20.77C310.62,22.13 309.54,26.38 309.39,30.62C309.223,37.773 309.681,44.927 310.76,52C311.07,54.19 313.67,53.3 314.76,52.45C316.462,51.043 317.312,48.846 317,46.66C316.22,41.23 315.12,34.54 315.59,28.66C316.45,28.59 317.4,28.51 317.8,28.5C319.42,28.44 321.05,28.5 322.67,28.5C326.23,28.5 329.797,28.563 333.37,28.69C340.5,28.88 347.63,29.22 354.76,29.69C358.26,29.9 361.8,21.7 357.86,21.45Z" style="fill:white;fill-opacity:0.25;fill-rule:nonzero;"/>
        <path d="M359,69.33L317.92,70.88C317.2,70.061 315.967,69.91 315.07,70.53C310.07,73.53 310.5,78.96 310.3,84.17C310.18,87.597 310.07,91.02 309.97,94.44C309.9,96.7 309.4,99.68 311.07,101.52C314.35,105.14 318.31,100.14 319.27,97.05C321.04,91.37 321.32,84.88 321.27,78.87L355.93,77.56C359.42,77.43 362.79,69.18 359,69.33Z" style="fill:white;fill-opacity:0.25;fill-rule:nonzero;"/>
        <path d="M359.94,119.7C358.27,117.92 355.72,118.38 353.43,118.25C349.36,118.03 345.27,117.71 341.19,117.88C336.78,118.08 332.26,119.12 327.78,119.54C327.612,119.119 327.262,118.796 326.83,118.66L326.12,118.46L325.93,118.46C322.666,117.467 319.174,117.502 315.93,118.56C314.53,119.01 311.59,122.56 311.65,124.82C311.52,125.14 311.39,125.47 311.28,125.82C308.97,132.89 311.7,141.82 314.28,148.42C315.97,152.74 321.76,146.21 320.52,143.06C318.784,138.808 317.647,134.335 317.14,129.77C317.09,129.22 317.07,128.28 317.06,127.51C322.18,128.3 327.19,127.51 332.51,126.75C336.578,126.195 340.69,126.025 344.79,126.24L350.28,126.54C350.92,126.54 352.99,126.8 353.9,126.75L353.99,126.84C355.08,127.95 356.6,127.58 357.67,126.58L357.98,126.28C359.28,125.06 361.62,121.49 359.94,119.7Z" style="fill:white;fill-opacity:0.25;fill-rule:nonzero;"/>
        <path d="M358.23,164.73C351.04,165.52 343.89,164.16 336.69,164.41C330.03,164.64 323.56,166.62 316.89,165.41C314.15,164.93 312.09,169.19 312.1,171.33C312.1,175.81 312.25,180.28 312.61,184.74C312.86,187.81 312.61,191.8 314.16,194.49C314.98,195.88 316.98,194.98 317.84,194.23L318.04,194.05C319.54,192.74 321.37,189.5 319.95,187.52L319.83,187.36C319.712,187.197 319.574,187.05 319.42,186.92C318.65,184.58 319.03,180.36 318.9,178.27C318.81,176.85 318.76,175.44 318.71,174.02C324.29,174.02 329.82,172.62 335.46,172.58C342.59,172.53 349.57,173.58 356.71,172.78C360,172.46 362.89,164.22 358.23,164.73Z" style="fill:white;fill-opacity:0.25;fill-rule:nonzero;"/>
        <path d="M362.23,136.59C362.14,132.28 362,127.97 361.97,123.67C361.97,119.78 361.22,116.51 356.97,115.67C351.83,114.67 346.07,115.21 340.8,115.21L328.42,115.21C323.42,115.21 311.49,112.96 309.99,120.03C309.965,120.135 309.965,120.245 309.99,120.35C308.898,130.476 308.932,140.692 310.09,150.81C310.106,151.417 310.603,151.91 311.21,151.92C319.79,151.98 328.35,152.38 336.95,152.26C341,152.21 345.05,152.12 349.11,152.03C353.17,151.94 361.01,153.03 362.26,147.58C363,144.19 362.29,140 362.23,136.59ZM360.13,145.59C359.07,150.82 353.19,149.71 349.06,149.79C344.93,149.87 340.95,149.95 336.9,150.01C328.63,150.13 320.39,149.79 312.14,149.75C310.938,140.048 310.673,130.253 311.35,120.5C313.07,115.07 327.35,117.29 332.3,117.31L344.38,117.31C347.6,117.31 352.51,116.62 355.56,117.64C360.25,119.21 359.8,122.44 359.84,125.64C359.91,130.51 360.02,135.39 360.07,140.26C360.259,142.021 360.279,143.795 360.13,145.56L360.13,145.59Z" style="fill:rgb(30,30,30);fill-rule:nonzero;"/>
        <path d="M360.86,163.22C360.844,162.613 360.347,162.12 359.74,162.11C352.9,162.06 346.08,161.65 339.21,161.71C331.03,161.79 321.81,160.93 313.81,162.27C307.37,163.35 309.35,172.11 309.43,176.94C309.56,183.63 309.57,190.34 309.84,197.02C309.885,197.569 310.34,198.002 310.89,198.02C320.42,199.02 330,198.84 339.57,198.83C343.39,198.83 347.22,198.91 351.03,198.83C355.93,198.7 359.59,199.26 360.94,194.03C360.97,193.912 360.97,193.788 360.94,193.67C362.007,183.547 361.98,173.338 360.86,163.22ZM354.34,196.79C351.54,197.01 348.71,196.89 345.91,196.87L336.22,196.87C328.11,196.87 320,196.87 311.91,196.09C311.72,190.61 311.74,185.09 311.65,179.63C311.65,176.12 311.44,172.63 311.55,169.08C311.445,168.026 311.551,166.963 311.86,165.95C313.17,163.44 319.71,164.36 322.25,164.31C334.44,164.07 346.59,164.31 358.76,164.36C359.936,174.077 360.194,183.884 359.53,193.65C358.35,196.84 357.52,196.54 354.34,196.79Z" style="fill:rgb(30,30,30);fill-rule:nonzero;"/>
        <path d="M361.26,42.27C361.17,35.69 361.38,29.02 360.93,22.45C360.98,22.318 360.98,22.172 360.93,22.04C359.18,17.63 351.76,19.21 347.78,19.2L326.55,19.2C322.62,19.2 315,18.01 311.55,19.74C308.1,21.47 309.5,30.26 309.46,33.41C309.46,36.99 309.37,40.56 309.33,44.14C309.33,46.68 308.6,50.24 309.25,52.71C310.35,56.84 316.4,56.33 319.79,56.38C327.09,56.5 334.39,56.607 341.69,56.7C346.97,56.76 353.01,57.55 358.12,56.14C363.23,54.73 361.31,46.36 361.26,42.27ZM359.14,52C358.14,55.82 347.89,54.45 344.53,54.44C339.39,54.44 334.24,54.29 329.1,54.22C324.16,54.16 318.36,54.91 313.58,53.61C311.04,52.92 311.53,52.27 311.53,49.87C311.53,46.663 311.547,43.453 311.58,40.24C311.58,35.24 311.68,30.35 311.7,25.4C311.7,20.83 315.18,21.4 318.7,21.29L342.97,21.29C346.15,21.29 357.84,19.9 359.49,22.63C359.76,27.01 359.41,31.53 359.35,35.91C359.31,38.99 359.267,42.067 359.22,45.14C359.22,47.14 359.65,49.93 359.14,52Z" style="fill:rgb(30,30,30);fill-rule:nonzero;"/>
        <path d="M361.93,91.39C361.84,84.39 362,77.39 361.6,70.39C361.635,70.269 361.635,70.141 361.6,70.02C360.3,66.08 354.25,67.47 351,67.42C343.12,67.3 335.24,67.25 327.36,67.19C322.61,67.19 317.95,66.9 313.25,67.73C310.49,68.22 309.77,68.51 309.54,71.36C309.35,73.63 309.48,76 309.44,78.28C309.33,84.85 309.03,91.45 309.09,98.03C309.09,100.67 308.82,103.03 311.44,104.25C313.27,105.08 316.5,104.64 318.44,104.67C325.84,104.77 333.237,104.863 340.63,104.95C345.93,105.01 352.5,105.89 357.63,104.76C363.81,103.38 362,96.05 361.93,91.39ZM359.8,100.59C358.45,104.11 349.04,102.74 345.6,102.69L327.15,102.46L318.48,102.36C316.79,102.36 312.68,102.81 311.48,101.27C310.85,100.44 311.3,96.57 311.31,95.33C311.35,92.11 311.393,88.893 311.44,85.68L311.56,76.68C311.56,75.3 311.17,72.62 311.61,71.29C312.61,68.29 320.39,69.14 323.45,69.16L345.6,69.28C348.27,69.28 358.74,67.72 360.16,70.44C360.41,75.22 360.07,80.11 360,84.89C359.96,88.223 359.913,91.557 359.86,94.89C359.87,96.46 360.36,99.15 359.8,100.59Z" style="fill:rgb(30,30,30);fill-rule:nonzero;"/>
        <path d="M342.26,178.09C340.48,180.195 338.584,182.198 336.58,184.09C336.22,170.24 336.04,156.38 335.87,142.52C335.69,127.093 335.583,111.657 335.55,96.21C335.5,76.53 336.24,56.74 335.55,37.07C335.426,36.645 335.033,36.35 334.59,36.35C334.147,36.35 333.754,36.645 333.63,37.07C332.51,56.71 333.06,76.55 333.06,96.21C333.06,111.65 333.15,127.087 333.33,142.52C333.48,156.25 333.67,169.98 334.02,183.7C332.19,181.572 330.02,179.761 327.6,178.34C326.84,177.96 325.71,178.8 326.32,179.62C328.61,182.73 332.03,185.18 334.71,187.98C334.941,188.202 335.249,188.327 335.57,188.327C336.003,188.327 336.405,188.1 336.63,187.73C338.96,184.73 342.09,182.35 344.41,179.29C345.36,178.07 343.21,176.83 342.26,178.09Z" style="fill:rgb(30,30,30);fill-rule:nonzero;"/>
        <path d="M459.18,26C459.13,23.36 457.02,22.35 454.77,23.45C452.29,24.67 450.48,28.1 450.53,30.8C450.6,35.15 450.84,39.5 450.97,43.8C451.04,46.14 451.16,48.44 451.36,50.8L451.36,50.93C449.56,50.98 447.66,50.73 446.03,50.78C442.12,50.91 438.26,51.35 434.34,51.14C426.34,50.69 418.34,50.54 410.34,50.4C405.67,50.31 401.05,61.28 406.22,61.4C414.22,61.54 422.22,61.69 430.22,62.13C434.14,62.35 438,61.91 441.91,61.78C444.91,61.68 448.09,62.16 451.06,61.58C457.23,60.36 460.23,55.58 460.29,49.5C460.36,41.75 459.32,33.83 459.18,26Z" style="fill-opacity:0.15;fill-rule:nonzero;"/>
        <path d="M452.16,22.22C452.07,21.56 450.04,20.39 449.76,20.34C449.14,20.25 408.02,20.28 406.28,20.34C405.53,20.34 402.56,22.9 402.59,23.67C402.59,24.18 402.5,53.82 402.94,54.2C403.75,54.9 447.43,55.37 449.12,55.12C449.73,55.03 452.12,53.24 452.19,52.41C452.26,51.58 452.25,22.88 452.16,22.22Z" style="fill:rgb(247,148,31);fill-rule:nonzero;"/>
        <path d="M458.37,74.44C458.37,71.8 456.21,70.8 453.96,71.9C451.48,73.11 449.68,76.54 449.72,79.24C449.79,83.51 450.04,87.77 450.16,92.04C450.23,94.37 450.33,96.67 450.48,99.04L450.48,99.17C449.58,99.1 448.72,98.99 448.22,99C446.22,99.06 444.17,99.29 442.15,99.4C439.25,99.56 436.35,99.4 433.46,99.33C425.91,99.02 418.38,98.82 410.83,98.65C406.16,98.54 401.53,109.51 406.71,109.65C413.82,109.81 420.93,109.96 428.04,110.28C434.47,110.56 440.74,110.03 447.16,110.01C453.86,110.01 458.62,106.5 459.23,99.49C460,91.28 458.5,82.63 458.37,74.44Z" style="fill-opacity:0.15;fill-rule:nonzero;"/>
        <path d="M452.79,70.17C452.71,69.5 451,68.31 450.79,68.27C450.27,68.17 406.58,68.11 406.58,68.11C405.1,68.11 402.58,70.84 402.58,71.62C402.58,72.13 402.37,100.24 402.44,101.27C402.44,101.73 405.04,103.41 406.31,103.43C407.82,103.43 447.86,104.43 448.31,104.22C449.31,103.69 452.86,101.62 452.9,100.78C452.94,99.94 452.87,70.84 452.79,70.17Z" style="fill:rgb(247,148,31);fill-rule:nonzero;"/>
        <path d="M458.93,123.42C458.93,120.77 456.76,119.78 454.52,120.87C452.03,122.09 450.25,125.51 450.28,128.22C450.35,134.04 450.36,139.85 450.35,145.67C437.91,145.81 425.47,145.99 413.04,145.77C408.36,145.68 403.74,156.65 408.91,156.77C423.46,157.04 438.04,156.77 452.59,156.61C456.34,156.61 458.96,152.09 458.98,148.72C459,140.26 459,131.84 458.93,123.42Z" style="fill-opacity:0.15;fill-rule:nonzero;"/>
        <path d="M402.51,120.23C402.68,118.93 406.34,116.62 406.86,116.54C407.97,116.36 448.66,116.54 449.79,117.04C450.67,117.39 452.24,119.85 452.64,120.43C453.64,121.84 452.98,144.59 452.84,146.57C452.78,147.46 451.16,149.26 450.36,150.01C448.9,151.37 405.17,151.01 404.28,150.6C402.19,149.6 402.54,147.26 402.45,145.6C402.36,143.94 402.34,121.52 402.51,120.23Z" style="fill:rgb(247,148,31);fill-rule:nonzero;"/>
        <path d="M458.42,169.7C458.42,167.05 456.25,166.06 454.01,167.15C451.52,168.38 449.75,171.79 449.77,174.5C449.83,180.56 449.85,186.617 449.83,192.67C437.37,192.92 424.88,193.24 412.43,193C407.75,192.91 403.13,203.88 408.3,204C422.88,204.28 437.5,203.79 452.08,203.55C455.82,203.49 458.45,199.06 458.47,195.66C458.51,187.007 458.493,178.353 458.42,169.7Z" style="fill-opacity:0.15;fill-rule:nonzero;"/>
        <path d="M450.55,197.19C450.18,197.48 404.08,199.19 402.82,196.92C401.99,195.44 402.82,167.45 402.82,167.45C402.82,167.45 403.01,163.12 406.69,163.18C409.81,163.18 449.69,162.99 450.52,163.41C454.14,165.16 453.73,194.67 450.55,197.19Z" style="fill:rgb(247,148,31);fill-rule:nonzero;"/>
        <path d="M450.3,20.86C442.51,20.25 434.7,19.97 426.89,20.11C422.99,20.18 419.08,20.35 415.19,20.62C412.49,20.81 408.79,20.51 406.37,21.91C401.3,24.86 402.65,31.36 402.81,36.09C403.01,42.18 400.97,47.48 404.47,53.09C406.54,56.38 411.93,49.28 410.06,46.29C408,43 408.92,39.63 409.23,36C409.34,34.69 408.58,31.31 408.49,29C414.31,27.92 421.05,28.34 426.72,28.3C433.56,28.3 440.38,28.55 447.2,29.08C450.69,29.37 454.25,21.17 450.3,20.86Z" style="fill:white;fill-opacity:0.25;fill-rule:nonzero;"/>
        <path d="M451.68,68.45C436.88,69.22 421.21,71.52 406.54,68.69C403.97,68.19 401.54,72.49 401.75,74.61C402.587,83.186 402.874,91.807 402.61,100.42C402.54,105.69 409.06,100.23 409.1,96.82C409.18,90.45 409.21,84.08 408.82,77.73C421.9,79.21 435.58,77.36 448.59,76.73C452.08,76.51 455.44,68.26 451.68,68.45Z" style="fill:white;fill-opacity:0.25;fill-rule:nonzero;"/>
        <path d="M451.65,119C451.443,118.26 450.827,117.703 450.07,117.57C448.992,117.444 447.909,117.762 447.07,118.45C445.86,118.2 444.54,117.83 444.02,117.76C442.48,117.53 440.93,117.34 439.38,117.18C435.96,116.827 432.53,116.643 429.09,116.63C422.886,116.502 416.685,116.998 410.58,118.11C406.58,118.92 403.73,121.62 403.46,125.89C403.27,128.89 404.33,132.56 404.58,135.64C404.9,139.55 405.05,143.47 405.09,147.4C405.15,152.69 411.62,147.22 411.58,143.8L411.58,142.57C411.591,142.38 411.591,142.19 411.58,142C411.46,136.5 411.05,131 410.41,125.6C414.22,124.73 419.23,125 422.3,124.91C427.607,124.751 432.918,124.989 438.19,125.62C441.41,126.01 446.11,128.06 449.03,126.09C451,124.75 452.62,121.4 451.65,119Z" style="fill:white;fill-opacity:0.25;fill-rule:nonzero;"/>
        <path d="M450.89,163.9C436.58,161.96 422.52,166.55 408.2,165.78C405.54,165.64 403.2,169.31 403.41,171.7C403.77,176.52 403.94,181.34 403.85,186.17C403.8,188.92 402.55,193.34 404.45,195.67C405.45,196.94 407.07,196.24 408.13,195.4L408.52,195.09C410.04,193.87 411.84,190.46 410.43,188.56L410.21,188.26L410.13,188.17C410.18,187.27 410.23,186.37 410.26,185.47C410.34,183.54 410.37,181.6 410.37,179.67C410.37,177.74 410.32,175.94 410.25,174.08C422.8,173.77 435.25,170.43 447.8,172.14C451.24,172.61 454.9,164.45 450.89,163.9Z" style="fill:white;fill-opacity:0.25;fill-rule:nonzero;"/>
        <path d="M453.26,42.27C453.17,35.69 453.38,29.02 452.93,22.45C452.98,22.318 452.98,22.172 452.93,22.04C451.18,17.63 443.76,19.21 439.78,19.2L418.55,19.2C414.62,19.2 407,18.01 403.55,19.74C400.1,21.47 401.5,30.26 401.46,33.41C401.46,36.99 401.37,40.56 401.33,44.14C401.33,46.68 400.6,50.24 401.25,52.71C402.35,56.84 408.4,56.33 411.79,56.38C419.09,56.5 426.39,56.607 433.69,56.7C438.97,56.76 445.01,57.55 450.12,56.14C455.23,54.73 453.31,46.36 453.26,42.27ZM451.14,52C450.14,55.82 439.89,54.45 436.53,54.44C431.39,54.44 426.24,54.29 421.1,54.22C416.16,54.16 410.36,54.91 405.58,53.61C403.04,52.92 403.53,52.27 403.53,49.87C403.53,46.663 403.547,43.453 403.58,40.24C403.58,35.24 403.68,30.35 403.7,25.4C403.7,20.83 407.18,21.4 410.7,21.29L434.97,21.29C438.15,21.29 449.84,19.9 451.49,22.63C451.76,27.01 451.41,31.53 451.35,35.91C451.31,38.99 451.267,42.067 451.22,45.14C451.22,47.14 451.65,49.93 451.14,52Z" style="fill:rgb(30,30,30);fill-rule:nonzero;"/>
        <path d="M453.93,91.39C453.84,84.39 454,77.39 453.6,70.39C453.635,70.269 453.635,70.141 453.6,70.02C452.3,66.08 446.25,67.47 443,67.42C435.12,67.3 427.24,67.25 419.36,67.19C414.61,67.19 409.95,66.9 405.25,67.73C402.49,68.22 401.77,68.51 401.54,71.36C401.35,73.63 401.48,76 401.44,78.28C401.33,84.85 401.03,91.45 401.09,98.03C401.09,100.67 400.82,103.03 403.44,104.25C405.27,105.08 408.5,104.64 410.44,104.67C417.84,104.77 425.237,104.863 432.63,104.95C437.93,105.01 444.5,105.89 449.63,104.76C455.81,103.38 454,96.05 453.93,91.39ZM451.8,100.59C450.45,104.11 441.04,102.74 437.6,102.69L419.15,102.46L410.48,102.36C408.79,102.36 404.68,102.81 403.48,101.27C402.85,100.44 403.3,96.57 403.31,95.33C403.35,92.11 403.393,88.893 403.44,85.68L403.56,76.68C403.56,75.3 403.17,72.62 403.61,71.29C404.61,68.29 412.39,69.14 415.45,69.16L437.6,69.28C440.27,69.28 450.74,67.72 452.16,70.44C452.41,75.22 452.07,80.11 452,84.89C451.96,88.223 451.913,91.557 451.86,94.89C451.87,96.46 452.36,99.15 451.8,100.59Z" style="fill:rgb(30,30,30);fill-rule:nonzero;"/>
        <path d="M454.23,136.59C454.14,132.28 454,127.97 453.97,123.67C453.97,119.78 453.22,116.51 448.97,115.67C443.83,114.67 438.07,115.21 432.8,115.21L420.42,115.21C415.42,115.21 403.49,112.96 401.99,120.03C401.965,120.135 401.965,120.245 401.99,120.35C400.898,130.476 400.932,140.692 402.09,150.81C402.106,151.417 402.603,151.91 403.21,151.92C411.79,151.98 420.35,152.38 428.95,152.26C433,152.21 437.05,152.12 441.11,152.03C445.17,151.94 453.01,153.03 454.26,147.58C455,144.19 454.29,140 454.23,136.59ZM452.13,145.59C451.07,150.82 445.19,149.71 441.06,149.79C436.93,149.87 432.95,149.95 428.9,150.01C420.63,150.13 412.39,149.79 404.14,149.75C402.938,140.048 402.673,130.253 403.35,120.5C405.07,115.07 419.35,117.29 424.3,117.31L436.38,117.31C439.6,117.31 444.51,116.62 447.56,117.64C452.25,119.21 451.8,122.44 451.84,125.64C451.91,130.51 452.02,135.39 452.07,140.26C452.259,142.021 452.279,143.795 452.13,145.56L452.13,145.59Z" style="fill:rgb(30,30,30);fill-rule:nonzero;"/>
        <path d="M452.86,163.22C452.844,162.613 452.347,162.12 451.74,162.11C444.9,162.06 438.08,161.65 431.21,161.71C423.03,161.79 413.81,160.93 405.81,162.27C399.37,163.35 401.35,172.11 401.43,176.94C401.56,183.63 401.57,190.34 401.84,197.02C401.885,197.569 402.34,198.002 402.89,198.02C412.42,199.02 422,198.84 431.57,198.83C435.39,198.83 439.22,198.91 443.03,198.83C447.93,198.7 451.59,199.26 452.94,194.03C452.97,193.912 452.97,193.788 452.94,193.67C454.007,183.547 453.98,173.338 452.86,163.22ZM446.34,196.79C443.54,197.01 440.71,196.89 437.91,196.87L428.22,196.87C420.11,196.87 412,196.87 403.91,196.09C403.72,190.61 403.74,185.09 403.65,179.63C403.65,176.12 403.44,172.63 403.55,169.08C403.445,168.026 403.551,166.963 403.86,165.95C405.17,163.44 411.71,164.36 414.25,164.31C426.44,164.07 438.59,164.31 450.76,164.36C451.936,174.077 452.194,183.884 451.53,193.65C450.35,196.84 449.52,196.54 446.34,196.79Z" style="fill:rgb(30,30,30);fill-rule:nonzero;"/>
        <path d="M436.64,43C434.26,39.69 430.57,37.09 427.74,34.14C427.509,33.918 427.201,33.793 426.88,33.793C426.447,33.793 426.045,34.02 425.82,34.39C423.53,37.47 420.82,40.23 418.55,43.33C417.6,44.62 419.75,45.85 420.68,44.58C422.22,42.49 423.95,40.58 425.62,38.58C427.62,68.1 427.45,97.86 427.4,127.42C427.4,147.34 426.4,167.33 426.9,187.23C427.018,187.664 427.415,187.968 427.865,187.968C428.315,187.968 428.712,187.664 428.83,187.23C430.95,155.53 430.15,123.32 429.76,91.55C429.57,75.55 429.24,59.62 428.46,43.67C428.37,41.83 428.27,40 428.15,38.16C430.33,40.51 432.74,43.02 435.36,44.3C436.11,44.61 437.23,43.78 436.64,43Z" style="fill:rgb(30,30,30);fill-rule:nonzero;"/>
        <g transform="matrix(0.743862,0,0,0.745642,-4.07461,-24.7407)">
            <rect x="1.033" y="0.927" width="637.96" height="357.996" style="fill:none;stroke:black;stroke-width:1px;"/>
        </g>
    </g>
</svg>
